<svg width="20" height="20" viewBox="0 0 20 20" fill="none" xmlns="http://www.w3.org/2000/svg">
<path d="M10.0208 14.5C10.3264 14.5 10.5868 14.3924 10.8021 14.1771C11.0174 13.9618 11.125 13.7014 11.125 13.3958V10.2708C11.125 9.96528 11.0174 9.70486 10.8021 9.48958C10.5868 9.27431 10.3264 9.16667 10.0208 9.16667C9.71528 9.16667 9.45486 9.27431 9.23958 9.48958C9.02431 9.70486 8.91667 9.96528 8.91667 10.2708V13.3958C8.91667 13.7014 9.02431 13.9618 9.23958 14.1771C9.45486 14.3924 9.71528 14.5 10.0208 14.5ZM9.99635 7.16667C10.2905 7.16667 10.5382 7.06719 10.7396 6.86823C10.941 6.66928 11.0417 6.42276 11.0417 6.12865C11.0417 5.83455 10.9422 5.58681 10.7432 5.38542C10.5443 5.18403 10.2978 5.08333 10.0036 5.08333C9.70955 5.08333 9.46181 5.18281 9.26042 5.38177C9.05903 5.58072 8.95833 5.82724 8.95833 6.12135C8.95833 6.41545 9.05781 6.66319 9.25677 6.86458C9.45572 7.06597 9.70224 7.16667 9.99635 7.16667ZM10 19C8.755 19 7.585 18.7637 6.49 18.2912C5.395 17.8187 4.4425 17.1775 3.6325 16.3675C2.8225 15.5575 2.18125 14.605 1.70875 13.51C1.23625 12.415 1 11.245 1 10C1 8.75144 1.23666 7.5781 1.70998 6.47998C2.1833 5.38184 2.82566 4.42662 3.63706 3.61431C4.44847 2.80199 5.40096 2.16319 6.49454 1.69792C7.58812 1.23264 8.75661 1 10 1C11.2484 1 12.4216 1.23264 13.5196 1.69792C14.6177 2.16319 15.5729 2.80208 16.3854 3.61458C17.1979 4.42708 17.8368 5.38252 18.3021 6.4809C18.7674 7.57929 19 8.7529 19 10.0017C19 11.2506 18.7674 12.4201 18.3021 13.5104C17.8368 14.6007 17.198 15.5515 16.3857 16.3629C15.5734 17.1743 14.6182 17.8167 13.52 18.29C12.4219 18.7633 11.2486 19 10 19Z" fill="#6B6C6E"/>
</svg>
