<svg width="84" height="16" viewBox="0 0 84 16" fill="none" xmlns="http://www.w3.org/2000/svg">
<path d="M5.19358 14.6654C2.9548 14.6654 0.823486 12.9102 0.823486 9.70429V9.66847C0.823486 6.46254 2.91898 4.70734 5.19358 4.70734C6.6443 4.70734 7.53982 5.37002 8.18458 6.14016V1.41187H10.9069V14.4863H8.18458V13.1072C7.5219 14.0027 6.60848 14.6654 5.19358 14.6654ZM5.89208 12.355C7.1637 12.355 8.2204 11.2983 8.2204 9.70429V9.66847C8.2204 8.07446 7.1637 7.01776 5.89208 7.01776C4.62045 7.01776 3.54584 8.05655 3.54584 9.66847V9.70429C3.54584 11.2983 4.62045 12.355 5.89208 12.355Z" fill="#575757"/>
<path d="M16.7063 14.6654C14.6467 14.6654 13.4467 13.3042 13.4467 11.1013V4.88645H16.169V10.2416C16.169 11.5311 16.778 12.1938 17.8168 12.1938C18.8556 12.1938 19.5182 11.5311 19.5182 10.2416V4.88645H22.2406V14.4863H19.5182V13.1251C18.8914 13.9311 18.0854 14.6654 16.7063 14.6654Z" fill="#575757"/>
<path d="M30.5697 14.6654C29.119 14.6654 28.2234 14.0027 27.5787 13.2326V14.4863H24.8563V1.41187H27.5787V6.26553C28.2414 5.37002 29.1548 4.70734 30.5697 4.70734C32.8085 4.70734 34.9398 6.46254 34.9398 9.66847V9.70429C34.9398 12.9102 32.8443 14.6654 30.5697 14.6654ZM29.8712 12.355C31.1428 12.355 32.2174 11.3162 32.2174 9.70429V9.66847C32.2174 8.07446 31.1428 7.01776 29.8712 7.01776C28.5996 7.01776 27.5429 8.07446 27.5429 9.66847V9.70429C27.5429 11.2983 28.5996 12.355 29.8712 12.355Z" fill="#575757"/>
<path d="M39.8437 14.6654C38.0347 14.6654 36.5482 13.6266 36.5482 11.7281V11.6923C36.5482 9.59683 38.1422 8.62968 40.4168 8.62968C41.384 8.62968 42.0825 8.79087 42.763 9.02371V8.86251C42.763 7.73417 42.0645 7.10731 40.7034 7.10731C39.6646 7.10731 38.9303 7.30433 38.0527 7.62671L37.3721 5.54913C38.4288 5.08346 39.4676 4.77898 41.0974 4.77898C42.5839 4.77898 43.6586 5.17301 44.3391 5.8536C45.0555 6.57001 45.3779 7.62671 45.3779 8.91625V14.4863H42.7451V13.4475C42.0825 14.1818 41.169 14.6654 39.8437 14.6654ZM40.6675 12.7849C41.9392 12.7849 42.7989 12.0864 42.7989 11.1013V10.6177C42.3332 10.4028 41.7242 10.2595 41.0616 10.2595C39.8974 10.2595 39.181 10.7252 39.181 11.5849V11.6207C39.181 12.355 39.7899 12.7849 40.6675 12.7849Z" fill="#575757"/>
<path d="M47.9534 3.82974V1.41187H50.819V3.82974H47.9534ZM48.025 14.4863V4.88645H50.7474V14.4863H48.025Z" fill="#575757"/>
<path d="M60.9302 11.2625C60.9302 13.1419 59.4066 14.6654 57.5272 14.6654C55.6478 14.6654 54.1243 13.1419 54.1243 11.2625C54.1243 9.38309 55.6478 7.85954 57.5272 7.85954C59.4066 7.85954 60.9302 9.38309 60.9302 11.2625Z" fill="#609DDD"/>
<path d="M67.7898 6.14016C67.2405 6.14016 66.739 6.20583 66.2853 6.33717C65.8435 6.45658 65.4077 6.61777 64.9779 6.82075L64.5659 5.69241C65.0794 5.4536 65.5987 5.26853 66.1241 5.13719C66.6495 4.99391 67.2525 4.92227 67.933 4.92227C69.1987 4.92227 70.1718 5.23868 70.8524 5.87151C71.533 6.4924 71.8733 7.41776 71.8733 8.64759V14.3072H70.5479V12.9102C70.2256 13.3281 69.7897 13.6983 69.2405 14.0207C68.7032 14.343 68.0226 14.5042 67.1987 14.5042C66.7689 14.5042 66.345 14.4445 65.9271 14.3251C65.5211 14.2057 65.151 14.0266 64.8167 13.7878C64.4943 13.5371 64.2316 13.2326 64.0286 12.8744C63.8376 12.5162 63.7421 12.0923 63.7421 11.6028C63.7421 11.1132 63.8376 10.6834 64.0286 10.3132C64.2197 9.93116 64.4883 9.61474 64.8346 9.364C65.1928 9.11326 65.6107 8.92221 66.0883 8.79087C66.5778 8.65953 67.1151 8.59386 67.7002 8.59386C68.2972 8.59386 68.8166 8.62968 69.2584 8.70132C69.7002 8.77296 70.13 8.86848 70.5479 8.98789V8.6655C70.5479 7.82969 70.3032 7.20283 69.8136 6.78493C69.336 6.35508 68.6614 6.14016 67.7898 6.14016ZM67.8435 9.61474C66.9719 9.61474 66.3032 9.78788 65.8375 10.1341C65.3719 10.4804 65.1391 10.952 65.1391 11.549C65.1391 11.8476 65.1988 12.1102 65.3182 12.3371C65.4495 12.564 65.6226 12.761 65.8375 12.9281C66.0525 13.0834 66.2972 13.2028 66.5719 13.2863C66.8584 13.3699 67.1569 13.4117 67.4674 13.4117C67.8972 13.4117 68.2972 13.352 68.6674 13.2326C69.0494 13.1013 69.3778 12.9281 69.6524 12.7132C69.939 12.4863 70.1599 12.2237 70.3151 11.9252C70.4823 11.6147 70.5658 11.2744 70.5658 10.9043V10.0088C70.2196 9.91325 69.8196 9.8237 69.3659 9.74012C68.9241 9.65653 68.4166 9.61474 67.8435 9.61474Z" fill="#575757"/>
<path d="M75.8154 10.1879C75.8631 10.6894 75.9825 11.1371 76.1736 11.5311C76.3646 11.9132 76.6094 12.2416 76.9079 12.5162C77.2064 12.7789 77.5407 12.9819 77.9108 13.1251C78.281 13.2565 78.669 13.3222 79.075 13.3222C79.7198 13.3222 80.269 13.2028 80.7228 12.964C81.1884 12.7252 81.6123 12.4087 81.9944 12.0147L82.8541 12.7849C82.3884 13.3102 81.8571 13.7341 81.2601 14.0565C80.663 14.3669 79.9228 14.5221 79.0392 14.5221C78.4064 14.5221 77.8094 14.4087 77.2482 14.1818C76.687 13.943 76.1974 13.6147 75.7795 13.1968C75.3616 12.7669 75.0273 12.2535 74.7766 11.6565C74.5378 11.0595 74.4184 10.4028 74.4184 9.68639C74.4184 9.01774 74.5258 8.39088 74.7407 7.80581C74.9676 7.2088 75.278 6.69538 75.6721 6.26553C76.0661 5.82375 76.5318 5.47748 77.0691 5.22674C77.6183 4.976 78.2153 4.85063 78.8601 4.85063C79.5407 4.85063 80.1496 4.98197 80.6869 5.24465C81.2242 5.49539 81.678 5.84166 82.0481 6.28344C82.4183 6.72523 82.6988 7.24463 82.8899 7.84163C83.0809 8.43864 83.1765 9.07744 83.1765 9.75803C83.1765 9.81773 83.1765 9.8834 83.1765 9.95504C83.1765 10.0267 83.1705 10.1043 83.1585 10.1879H75.8154ZM75.8154 9.16699H81.7795C81.7436 8.74908 81.6541 8.34909 81.5108 7.967C81.3795 7.58492 81.1884 7.2506 80.9377 6.96403C80.6989 6.67747 80.4004 6.45061 80.0422 6.28344C79.6959 6.10434 79.2899 6.01479 78.8243 6.01479C78.4183 6.01479 78.0422 6.09837 77.6959 6.26553C77.3497 6.42075 77.0452 6.64165 76.7825 6.92821C76.5198 7.20283 76.3049 7.53119 76.1377 7.91327C75.9706 8.29536 75.8631 8.71326 75.8154 9.16699Z" fill="#575757"/>
</svg>
