<svg width="424" height="423" viewBox="0 0 424 423" fill="none" xmlns="http://www.w3.org/2000/svg">
<path d="M189.626 29.4145C185.841 29.4145 182.112 27.8485 179.43 25.1672C178.766 24.5025 178.157 23.7477 177.639 22.9704C177.121 22.193 176.659 21.3481 176.31 20.4806C175.938 19.5906 175.668 18.6893 175.476 17.7655C175.307 16.8417 175.183 15.8841 175.183 14.9378C175.183 11.1524 176.738 7.42341 179.43 4.73086C182.776 1.38489 187.756 -0.147278 192.465 0.776527C193.389 0.979313 194.29 1.23843 195.18 1.6102C196.048 1.95945 196.881 2.42135 197.659 2.93958C198.436 3.45781 199.191 4.06617 199.856 4.73086C202.548 7.42341 204.08 11.1412 204.08 14.9378C204.08 15.8954 203.99 16.8417 203.821 17.7655C203.618 18.6893 203.359 19.5906 202.987 20.4806C202.638 21.3481 202.176 22.1818 201.658 22.9704C201.14 23.759 200.532 24.5025 199.867 25.1672C199.202 25.8319 198.447 26.429 197.67 26.9585C196.893 27.4767 196.048 27.9386 195.191 28.2879C194.29 28.6596 193.4 28.9188 192.476 29.1216C191.553 29.2905 190.595 29.4145 189.649 29.4145H189.626Z" fill="url(#paint0_linear_13375_48160)"/>
<path d="M380.268 340.365L359.652 324.514C364.552 318.138 369.081 311.367 373.103 304.416L395.612 317.439C391.027 325.37 385.867 333.076 380.279 340.354L380.268 340.365Z" fill="url(#paint1_linear_13375_48160)"/>
<path d="M410.258 286.604L385.935 277.4C388.796 269.852 391.174 262.033 393.021 254.181L418.347 260.107C416.251 269.075 413.536 277.997 410.269 286.604H410.258Z" fill="url(#paint2_linear_13375_48160)"/>
<path d="M423.394 226.332L397.449 224.563C397.742 220.361 397.877 216.069 397.877 211.81C397.877 207.957 397.764 204.07 397.528 200.251L423.484 198.651C423.755 203 423.89 207.416 423.89 211.799C423.89 216.643 423.721 221.533 423.394 226.321V226.332Z" fill="url(#paint3_linear_13375_48160)"/>
<path d="M393.292 170.633C391.512 162.758 389.179 154.94 386.374 147.38L410.754 138.323C413.953 146.952 416.612 155.875 418.662 164.865L393.303 170.622L393.292 170.633Z" fill="url(#paint4_linear_13375_48160)"/>
<path d="M373.711 120.275C369.723 113.267 365.228 106.451 360.35 100.018L381.068 84.3025C386.633 91.6366 391.759 99.4101 396.311 107.398L373.711 120.275Z" fill="url(#paint5_linear_13375_48160)"/>
<path d="M340.398 77.6894C334.551 72.1241 328.287 66.8854 321.753 62.1199L337.086 41.1203C344.521 46.5504 351.664 52.5101 358.333 58.8641L340.398 77.6894Z" fill="url(#paint6_linear_13375_48160)"/>
<path d="M296.224 46.4829L296.216 46.4783L307.964 23.2863C299.739 19.118 291.166 15.4678 282.469 12.426L273.884 36.9744C281.497 39.6321 289.008 42.83 296.216 46.4783L296.213 46.4829H296.224Z" fill="url(#paint7_linear_13375_48160)"/>
<path d="M244.942 29.415L244.931 29.4131L249.426 3.79632C240.391 2.20783 231.13 1.20516 221.915 0.810857L220.799 26.79C228.884 27.1391 237.003 28.0285 244.931 29.4131L244.931 29.415H244.942Z" fill="url(#paint8_linear_13375_48160)"/>
<path d="M47.1126 335.182C46.1663 335.182 45.2087 335.103 44.2849 334.889C43.3611 334.72 42.4598 334.427 41.5923 334.078C40.7023 333.706 39.8574 333.278 39.08 332.749C38.3027 332.23 37.5479 331.622 36.8832 330.923C34.1906 328.231 32.6585 324.513 32.6585 320.728C32.6585 316.942 34.1906 313.213 36.8832 310.498C40.263 307.152 45.2312 305.609 49.9178 306.567C50.8416 306.736 51.7767 307.028 52.6329 307.378C53.5004 307.749 54.3341 308.178 55.1114 308.707C55.9226 309.259 56.6436 309.834 57.3083 310.498C57.973 311.186 58.5813 311.918 59.0996 312.695C59.6516 313.506 60.0797 314.34 60.4289 315.208C60.8007 316.075 61.0936 316.965 61.2626 317.889C61.4654 318.846 61.5555 319.77 61.5555 320.717C61.5555 321.663 61.4654 322.598 61.2626 323.544C61.0936 324.468 60.8007 325.369 60.4289 326.237C60.0797 327.104 59.6516 327.938 59.0996 328.749C58.5813 329.526 57.973 330.259 57.3083 330.912C56.6436 331.611 55.9226 332.208 55.1114 332.737C54.3341 333.255 53.5004 333.684 52.6329 334.067C51.7654 334.416 50.8416 334.709 49.9178 334.878C48.994 335.081 48.0364 335.171 47.1126 335.171V335.182Z" fill="url(#paint9_linear_13375_48160)"/>
<path d="M21.8204 267.315C14.3398 270.087 10.5207 278.412 13.3259 285.893C15.4664 291.706 20.9754 295.289 26.845 295.289C28.5236 295.289 30.2247 294.996 31.8696 294.387C39.3614 291.616 43.1693 283.29 40.3979 275.81C37.6264 268.329 29.3009 264.51 21.8204 267.315Z" fill="url(#paint10_linear_13375_48160)"/>
<path d="M14.3173 223.108C6.39735 224.111 0.798192 231.366 1.83466 239.252C2.76973 246.564 8.97724 251.847 16.1424 251.847C16.7507 251.847 17.3816 251.825 17.99 251.735C25.9099 250.721 31.5203 243.477 30.4726 235.557C29.4587 227.671 22.2034 222.06 14.3173 223.108Z" fill="url(#paint11_linear_13375_48160)"/>
<path d="M1.04604 191.316C0.268694 199.258 6.10444 206.311 14.0244 207.088L14.0131 207.099C14.1511 207.105 14.2865 207.113 14.42 207.12C14.7659 207.138 15.0994 207.155 15.4326 207.155C22.778 207.155 29.0756 201.545 29.7966 194.064C30.5515 186.145 24.7382 179.07 16.7958 178.315C8.85332 177.56 1.80086 183.373 1.02351 191.316H1.04604Z" fill="url(#paint12_linear_13375_48160)"/>
<path d="M10.9938 144.359C8.44774 151.896 12.5485 160.109 20.0967 162.621C21.6289 163.14 23.161 163.376 24.6932 163.376C30.7317 163.376 36.3647 159.557 38.3925 153.518C40.9386 145.948 36.8604 137.735 29.2897 135.223C21.7077 132.688 13.5287 136.789 10.9938 144.359Z" fill="url(#paint13_linear_13375_48160)"/>
<path d="M31.2725 100.839C27.1154 107.621 29.2446 116.532 36.038 120.69V120.701C38.4151 122.143 41.0175 122.83 43.5861 122.83C48.4304 122.83 53.1734 120.374 55.9223 115.924C60.0794 109.142 57.9501 100.231 51.1568 96.0736C44.3297 91.9165 35.4296 94.0232 31.2725 100.839Z" fill="url(#paint14_linear_13375_48160)"/>
<path d="M60.7666 63.0194C55.19 68.7087 55.2801 77.8679 61.0032 83.4445C63.8084 86.1934 67.391 87.5791 71.12 87.5791C74.849 87.5791 78.6118 86.1258 81.4396 83.2417C87.0162 77.5299 86.9261 68.3933 81.203 62.8166C75.5024 57.2062 66.377 57.3301 60.7666 63.0194Z" fill="url(#paint15_linear_13375_48160)"/>
<path d="M97.9892 32.7367C91.286 37.0402 89.3257 45.9628 93.6293 52.6999C96.412 56.9809 101.054 59.3467 105.796 59.3467C108.489 59.3467 111.17 58.5919 113.604 57.0372C120.329 52.7336 122.267 43.7998 117.964 37.0966C113.649 30.3596 104.692 28.4218 97.9892 32.7367Z" fill="url(#paint16_linear_13375_48160)"/>
<path d="M141.059 11.5455C133.544 14.238 129.635 22.496 132.328 30.0103C134.434 35.9137 139.988 39.6089 145.937 39.6089C147.525 39.6089 149.17 39.316 150.792 38.7414C158.307 36.0488 162.216 27.7909 159.524 20.2766C156.831 12.7622 148.573 8.85294 141.059 11.5455Z" fill="url(#paint17_linear_13375_48160)"/>
<path d="M66.7708 364.406C106.269 402.192 158.103 423 212.698 423C267.293 423 319.116 402.192 358.625 364.406C363.808 359.449 363.999 351.213 359.031 346.02C354.063 340.838 345.839 340.646 340.645 345.614C306.002 378.747 260.567 396.998 212.698 396.998C164.829 396.998 119.394 378.759 84.7512 345.614C79.5688 340.657 71.3335 340.838 66.3652 346.02C61.3969 351.213 61.5772 359.449 66.7708 364.406Z" fill="url(#paint18_linear_13375_48160)"/>
<defs>
<linearGradient id="paint0_linear_13375_48160" x1="212.433" y1="0.511475" x2="212.433" y2="423" gradientUnits="userSpaceOnUse">
<stop stop-color="#006C44"/>
<stop offset="1" stop-color="#006C44"/>
</linearGradient>
<linearGradient id="paint1_linear_13375_48160" x1="212.433" y1="0.511475" x2="212.433" y2="423" gradientUnits="userSpaceOnUse">
<stop stop-color="#006C44"/>
<stop offset="1" stop-color="#006C44"/>
</linearGradient>
<linearGradient id="paint2_linear_13375_48160" x1="212.433" y1="0.511475" x2="212.433" y2="423" gradientUnits="userSpaceOnUse">
<stop stop-color="#006C44"/>
<stop offset="1" stop-color="#006C44"/>
</linearGradient>
<linearGradient id="paint3_linear_13375_48160" x1="212.433" y1="0.511475" x2="212.433" y2="423" gradientUnits="userSpaceOnUse">
<stop stop-color="#006C44"/>
<stop offset="1" stop-color="#006C44"/>
</linearGradient>
<linearGradient id="paint4_linear_13375_48160" x1="212.433" y1="0.511475" x2="212.433" y2="423" gradientUnits="userSpaceOnUse">
<stop stop-color="#006C44"/>
<stop offset="1" stop-color="#006C44"/>
</linearGradient>
<linearGradient id="paint5_linear_13375_48160" x1="212.433" y1="0.511475" x2="212.433" y2="423" gradientUnits="userSpaceOnUse">
<stop stop-color="#006C44"/>
<stop offset="1" stop-color="#006C44"/>
</linearGradient>
<linearGradient id="paint6_linear_13375_48160" x1="212.433" y1="0.511475" x2="212.433" y2="423" gradientUnits="userSpaceOnUse">
<stop stop-color="#006C44"/>
<stop offset="1" stop-color="#006C44"/>
</linearGradient>
<linearGradient id="paint7_linear_13375_48160" x1="212.433" y1="0.511475" x2="212.433" y2="423" gradientUnits="userSpaceOnUse">
<stop stop-color="#006C44"/>
<stop offset="1" stop-color="#006C44"/>
</linearGradient>
<linearGradient id="paint8_linear_13375_48160" x1="212.433" y1="0.511475" x2="212.433" y2="423" gradientUnits="userSpaceOnUse">
<stop stop-color="#006C44"/>
<stop offset="1" stop-color="#006C44"/>
</linearGradient>
<linearGradient id="paint9_linear_13375_48160" x1="212.433" y1="0.511475" x2="212.433" y2="423" gradientUnits="userSpaceOnUse">
<stop stop-color="#006C44"/>
<stop offset="1" stop-color="#006C44"/>
</linearGradient>
<linearGradient id="paint10_linear_13375_48160" x1="212.433" y1="0.511475" x2="212.433" y2="423" gradientUnits="userSpaceOnUse">
<stop stop-color="#006C44"/>
<stop offset="1" stop-color="#006C44"/>
</linearGradient>
<linearGradient id="paint11_linear_13375_48160" x1="212.433" y1="0.511475" x2="212.433" y2="423" gradientUnits="userSpaceOnUse">
<stop stop-color="#006C44"/>
<stop offset="1" stop-color="#006C44"/>
</linearGradient>
<linearGradient id="paint12_linear_13375_48160" x1="212.433" y1="0.511475" x2="212.433" y2="423" gradientUnits="userSpaceOnUse">
<stop stop-color="#006C44"/>
<stop offset="1" stop-color="#006C44"/>
</linearGradient>
<linearGradient id="paint13_linear_13375_48160" x1="212.433" y1="0.511475" x2="212.433" y2="423" gradientUnits="userSpaceOnUse">
<stop stop-color="#006C44"/>
<stop offset="1" stop-color="#006C44"/>
</linearGradient>
<linearGradient id="paint14_linear_13375_48160" x1="212.433" y1="0.511475" x2="212.433" y2="423" gradientUnits="userSpaceOnUse">
<stop stop-color="#006C44"/>
<stop offset="1" stop-color="#006C44"/>
</linearGradient>
<linearGradient id="paint15_linear_13375_48160" x1="212.433" y1="0.511475" x2="212.433" y2="423" gradientUnits="userSpaceOnUse">
<stop stop-color="#006C44"/>
<stop offset="1" stop-color="#006C44"/>
</linearGradient>
<linearGradient id="paint16_linear_13375_48160" x1="212.433" y1="0.511475" x2="212.433" y2="423" gradientUnits="userSpaceOnUse">
<stop stop-color="#006C44"/>
<stop offset="1" stop-color="#006C44"/>
</linearGradient>
<linearGradient id="paint17_linear_13375_48160" x1="212.433" y1="0.511475" x2="212.433" y2="423" gradientUnits="userSpaceOnUse">
<stop stop-color="#006C44"/>
<stop offset="1" stop-color="#006C44"/>
</linearGradient>
<linearGradient id="paint18_linear_13375_48160" x1="212.433" y1="0.511475" x2="212.433" y2="423" gradientUnits="userSpaceOnUse">
<stop stop-color="#006C44"/>
<stop offset="1" stop-color="#006C44"/>
</linearGradient>
</defs>
</svg>
