<svg width="153" height="52" viewBox="0 0 153 52" fill="none" xmlns="http://www.w3.org/2000/svg">
<path d="M10.5558 51.683C10.1627 51.683 9.77898 51.6778 9.38888 51.6686C8.58077 51.6576 7.77454 51.5839 6.97682 51.4482C6.23298 51.3141 5.51241 51.0645 4.83886 50.7079C4.17148 50.3542 3.56278 49.8904 3.03608 49.3343C2.50175 48.7847 2.05689 48.1473 1.71915 47.4473C1.37767 46.7428 1.14136 45.9876 1.01842 45.2081C0.885665 44.3705 0.813838 43.5236 0.80356 42.6746C0.795379 42.3897 0.784668 41.4409 0.784668 41.4409V10.2276C0.784668 10.2276 0.796076 9.29339 0.803625 9.01893C0.813466 8.1713 0.884875 7.32569 1.01724 6.4894C1.1404 5.70777 1.3769 4.95042 1.71855 4.24359C2.05506 3.5441 2.49744 2.90622 3.02855 2.35469C3.55907 1.79792 4.16971 1.33174 4.83822 0.973141C5.51023 0.617621 6.22944 0.369865 6.97178 0.238174C7.77212 0.101118 8.58114 0.0270185 9.39206 0.016498L10.5565 0H143.176L144.354 0.0171601C145.158 0.0271578 145.959 0.100596 146.752 0.23685C147.502 0.370192 148.229 0.619677 148.908 0.9771C150.248 1.69978 151.337 2.84312 152.025 4.24689C152.361 4.94884 152.594 5.70001 152.716 6.47489C152.849 7.31804 152.924 8.17029 152.94 9.02487C152.944 9.40753 152.944 9.81856 152.944 10.2276C152.954 10.7343 152.954 11.2166 152.954 11.7028V39.9815C152.954 40.4723 152.954 40.9513 152.944 41.4343C152.944 41.8737 152.944 42.2762 152.939 42.6905C152.923 43.5298 152.85 44.3668 152.718 45.1949C152.598 45.98 152.363 46.7411 152.021 47.4514C151.681 48.1438 151.239 48.7756 150.711 49.3237C150.183 49.8828 149.574 50.3493 148.905 50.7053C148.227 51.0647 147.501 51.3152 146.752 51.4482C145.955 51.5846 145.148 51.6583 144.34 51.6686C143.962 51.6778 143.566 51.683 143.182 51.683L141.783 51.6857L10.5558 51.683Z" fill="black"/>
<path d="M31.6208 26.2296C31.649 23.9373 32.7967 21.82 34.6619 20.6194C33.4799 18.8519 31.5711 17.7714 29.5114 17.7039C27.3444 17.4658 25.2436 19.0616 24.1393 19.0616C23.0137 19.0616 21.3135 17.7276 19.4827 17.767C17.0738 17.8485 14.8825 19.2478 13.7105 21.4529C11.2148 25.9772 13.0764 32.6265 15.4671 36.2837C16.6633 38.0745 18.0612 40.0748 19.8904 40.0039C21.6803 39.9262 22.3488 38.8088 24.5095 38.8088C26.65 38.8088 27.2772 40.0039 29.1435 39.9588C31.0642 39.9261 32.2743 38.16 33.4285 36.3523C34.2879 35.0763 34.9493 33.666 35.388 32.1737C33.1068 31.1635 31.6235 28.823 31.6208 26.2296V26.2296Z" fill="white"/>
<path d="M28.097 15.2985C29.1443 13.9822 29.6602 12.2902 29.5353 10.582C27.9353 10.758 26.4574 11.5586 25.396 12.8245C24.348 14.0734 23.817 15.7073 23.9201 17.3664C25.5415 17.3838 27.081 16.6217 28.097 15.2985V15.2985Z" fill="white"/>
<path fill-rule="evenodd" clip-rule="evenodd" d="M48.1386 35.4704H54.2469L55.7125 40.0056H58.3439L52.5582 23.2266H49.8701L44.0845 40.0056H46.6717L48.1386 35.4704ZM53.6115 33.3797H48.7696L51.1578 26.0194H51.2246L53.6115 33.3797Z" fill="white"/>
<path fill-rule="evenodd" clip-rule="evenodd" d="M65.962 40.1361C68.8946 40.1361 70.8378 37.6937 70.8378 33.8921C70.8378 30.1011 68.8832 27.6468 65.9179 27.6468C64.3921 27.5953 62.9627 28.4262 62.1977 29.8095H62.1536V27.7748H59.8323V44.055H62.2305V37.9958H62.286C63.0184 39.3878 64.4462 40.2191 65.962 40.1361ZM65.2838 29.7876C67.149 29.7876 68.3714 31.4159 68.3714 33.8926C68.3714 36.3918 67.149 38.0082 65.2838 38.0082C63.4515 38.0082 62.219 36.3575 62.219 33.8926C62.219 31.4502 63.4515 29.7876 65.2838 29.7876Z" fill="white"/>
<path fill-rule="evenodd" clip-rule="evenodd" d="M78.819 40.1361C81.7515 40.1361 83.6947 37.6936 83.6947 33.8921C83.6947 30.1011 81.7401 27.6468 78.7748 27.6468C77.249 27.5953 75.8196 28.4262 75.0546 29.8095H75.0105V27.7748H72.6892V44.055H75.0874V37.9958H75.1429C75.8754 39.3878 77.3032 40.2191 78.819 40.1361ZM78.1408 29.7876C80.0059 29.7876 81.2283 31.4159 81.2283 33.8926H81.2283C81.2283 36.3918 80.0059 38.0082 78.1408 38.0082C76.3084 38.0082 75.0759 36.3575 75.0759 33.8926C75.0759 31.4502 76.3084 29.7876 78.1408 29.7876Z" fill="white"/>
<path d="M92.1954 35.3369C92.3731 37.0008 93.9169 38.0933 96.0265 38.0933C98.0479 38.0933 99.5022 37.0008 99.5022 35.5005C99.5022 34.1981 98.6251 33.4183 96.5482 32.8839L94.4714 32.36C91.5288 31.6158 90.1627 30.1749 90.1627 27.8367C90.1627 24.9416 92.5722 22.9531 95.9937 22.9531C99.3799 22.9531 101.701 24.9416 101.779 27.8367H99.3585C99.2136 26.1622 97.8916 25.1515 95.9597 25.1515C94.0278 25.1515 92.7058 26.1741 92.7058 27.6625C92.7058 28.8488 93.5501 29.5468 95.6156 30.0811L97.3812 30.5351C100.669 31.3492 102.035 32.7321 102.035 35.1864C102.035 38.3255 99.6471 40.2916 95.8488 40.2916C92.2949 40.2916 89.8955 38.3717 89.7405 35.3368L92.1954 35.3369Z" fill="white"/>
<path d="M107.21 24.8789V27.7739H109.432V29.7625H107.21V36.5065C107.21 37.5542 107.655 38.0425 108.631 38.0425C108.895 38.0376 109.158 38.0183 109.42 37.9844V39.961C108.981 40.0469 108.535 40.0858 108.088 40.0771C105.723 40.0771 104.8 39.1469 104.8 36.7744V29.7625H103.102V27.7739H104.8V24.8789H107.21Z" fill="white"/>
<path fill-rule="evenodd" clip-rule="evenodd" d="M116.258 27.6328C112.882 27.6328 110.717 30.0515 110.717 33.9005C110.717 37.7601 112.861 40.1683 116.258 40.1683C119.657 40.1683 121.801 37.7601 121.801 33.9005C121.801 30.0514 119.646 27.6328 116.258 27.6328ZM116.261 29.7009C118.204 29.7009 119.36 31.2592 119.36 33.8996H119.36C119.36 36.5505 118.204 38.097 116.261 38.097C114.318 38.097 113.163 36.5505 113.163 33.8996C113.163 31.2711 114.318 29.7009 116.261 29.7009Z" fill="white"/>
<path d="M123.783 27.7747H126.071V29.8569H126.126C126.445 28.5165 127.618 27.594 128.936 27.6467C129.213 27.6457 129.488 27.6771 129.758 27.7404V30.0891C129.409 29.9775 129.045 29.9262 128.68 29.9374C127.975 29.9074 127.293 30.2016 126.813 30.7428C126.332 31.2839 126.102 32.0178 126.181 32.7519V40.008H123.783L123.783 27.7747Z" fill="white"/>
<path fill-rule="evenodd" clip-rule="evenodd" d="M135.78 40.1683C138.422 40.1683 140.488 38.6442 140.81 36.4235L138.533 36.4235C138.096 37.5586 136.999 38.2583 135.835 38.1441C134.962 38.1778 134.118 37.8172 133.517 37.1543C132.915 36.4913 132.615 35.5898 132.692 34.6791V34.5273H140.944V33.667C140.944 29.9578 138.911 27.6328 135.679 27.6328C132.392 27.6328 130.271 30.1214 130.271 33.9586C130.271 37.7839 132.381 40.1683 135.78 40.1683ZM138.544 32.7752L132.702 32.7752C132.7 31.9492 133.014 31.1567 133.572 30.5736C134.131 29.9906 134.889 29.6654 135.678 29.6703C136.46 29.6527 137.215 29.9778 137.759 30.5671C138.303 31.1565 138.587 31.9568 138.544 32.7752Z" fill="white"/>
<path fill-rule="evenodd" clip-rule="evenodd" d="M51.1916 11.7236C50.4897 10.9476 49.4925 10.542 48.4744 10.6185H45.6931V18.6809H48.4744C50.768 18.6809 52.0976 17.2003 52.0976 14.6246C52.2259 13.5643 51.8934 12.4997 51.1916 11.7236ZM48.3382 17.5395H46.8865V11.7567H48.3382C49.062 11.7146 49.7658 12.0134 50.2572 12.5713C50.7486 13.1292 50.9761 13.8879 50.8776 14.6398C50.9838 15.3949 50.7595 16.1598 50.2669 16.7223C49.7743 17.2849 49.0658 17.585 48.3382 17.5395Z" fill="white"/>
<path fill-rule="evenodd" clip-rule="evenodd" d="M54.7384 12.9137C53.8493 13.4914 53.3499 14.5468 53.4495 15.6374C53.348 16.7291 53.847 17.7866 54.7368 18.3655C55.6266 18.9444 56.7531 18.9444 57.643 18.3655C58.5328 17.7866 59.0318 16.7291 58.9302 15.6374C59.0299 14.5468 58.5304 13.4914 57.6414 12.9137C56.7523 12.3361 55.6274 12.3361 54.7384 12.9137ZM56.1953 13.5489C57.1883 13.5489 57.7542 14.3201 57.7542 15.639H57.7542C57.7542 16.9631 57.1883 17.7337 56.1953 17.7337C55.1985 17.7337 54.6377 16.9684 54.6377 15.639C54.6377 14.3201 55.1984 13.5489 56.1953 13.5489Z" fill="white"/>
<path d="M66.2115 18.6781H65.0219L63.8209 14.197H63.7302L62.5342 18.6781H61.3559L59.7542 12.5938H60.9173L61.9583 17.2364H62.044L63.2387 12.5938H64.3388L65.5335 17.2364H65.6243L66.6602 12.5938H67.8069L66.2115 18.6781Z" fill="white"/>
<path d="M69.1572 12.5961H70.2612V13.5627H70.3469C70.6449 12.851 71.3413 12.4157 72.0809 12.4787C72.6537 12.4336 73.2149 12.6636 73.6062 13.1039C73.9975 13.5441 74.1763 14.1468 74.0922 14.7417V18.6804H72.9455V15.0432C72.9455 14.0654 72.5397 13.5792 71.6915 13.5792C71.3031 13.5602 70.9261 13.7199 70.6594 14.0162C70.3927 14.3126 70.2629 14.7161 70.304 15.121V18.6804H69.1572L69.1572 12.5961Z" fill="white"/>
<path d="M75.9168 10.2188H77.0636V18.6782H75.9168V10.2188Z" fill="white"/>
<path fill-rule="evenodd" clip-rule="evenodd" d="M79.9446 12.9137C79.0555 13.4914 78.556 14.5468 78.6556 15.6375C78.5541 16.7293 79.0532 17.7867 79.9431 18.3656C80.833 18.9444 81.9595 18.9444 82.8493 18.3656C83.7392 17.7867 84.2383 16.7293 84.1369 15.6375C84.2364 14.5468 83.7369 13.4914 82.8478 12.9137C81.9587 12.3361 80.8337 12.3361 79.9446 12.9137ZM81.3966 13.5489C82.3897 13.5489 82.9555 14.3201 82.9555 15.639H82.9555C82.9555 16.9631 82.3897 17.7337 81.3966 17.7337C80.3999 17.7337 79.8391 16.9684 79.8391 15.639C79.8391 14.3201 80.3998 13.5489 81.3966 13.5489Z" fill="white"/>
<path fill-rule="evenodd" clip-rule="evenodd" d="M87.5099 15.1452C86.1275 15.235 85.3486 15.8663 85.3486 16.9616C85.3506 17.4809 85.5622 17.9751 85.9313 18.322C86.3003 18.6689 86.7923 18.8362 87.2856 18.7825C87.9893 18.8165 88.6561 18.4516 89.031 17.8272H89.1217V18.6822H90.2257V14.5251C90.2257 13.2398 89.404 12.4805 87.9472 12.4805C86.629 12.4805 85.6902 13.1508 85.573 14.1958H86.6832C86.8105 13.7657 87.2541 13.5196 87.8943 13.5196C88.6781 13.5196 89.0839 13.8825 89.0839 14.5251V15.0502L87.5099 15.1452ZM89.0836 15.9356V16.4442C89.0585 16.832 88.8842 17.1925 88.6005 17.4433C88.3169 17.694 87.9482 17.8135 87.5789 17.7743C86.9551 17.7743 86.5014 17.4557 86.5014 16.9081C86.5014 16.3717 86.8643 16.0867 87.6646 16.0306L89.0836 15.9356Z" fill="white"/>
<path fill-rule="evenodd" clip-rule="evenodd" d="M94.1462 12.493C92.678 12.493 91.7341 13.7109 91.7341 15.6334C91.7341 17.5606 92.668 18.7785 94.1462 18.7785C94.8957 18.8074 95.5985 18.3985 95.971 17.7169H96.0617V18.6782H97.1606V10.2188H96.0138V13.5604H95.9281C95.5819 12.8731 94.8875 12.4572 94.1462 12.493ZM94.4708 17.7027C93.4991 17.7027 92.9182 16.9261 92.9182 15.6356H92.9181C92.9181 14.3557 93.5054 13.5739 94.4708 13.5739C95.431 13.5739 96.0347 14.3729 96.0347 15.6409C96.0347 16.9149 95.4373 17.7027 94.4708 17.7027Z" fill="white"/>
<path fill-rule="evenodd" clip-rule="evenodd" d="M103.185 12.9137C102.296 13.4914 101.797 14.5468 101.896 15.6374C101.795 16.7291 102.294 17.7866 103.184 18.3655C104.073 18.9444 105.2 18.9444 106.09 18.3655C106.98 17.7866 107.479 16.7291 107.377 15.6374C107.477 14.5468 106.977 13.4914 106.088 12.9137C105.199 12.3361 104.074 12.3361 103.185 12.9137ZM104.642 13.5489C105.635 13.5489 106.201 14.3201 106.201 15.639C106.201 16.9631 105.635 17.7337 104.642 17.7337C103.645 17.7337 103.084 16.9684 103.084 15.639C103.084 14.3201 103.645 13.5489 104.642 13.5489Z" fill="white"/>
<path d="M108.922 12.5961H110.026V13.5627H110.112C110.41 12.851 111.106 12.4157 111.846 12.4787C112.419 12.4336 112.98 12.6636 113.371 13.1039C113.762 13.5441 113.941 14.1468 113.857 14.7417V18.6804H112.71V15.0432C112.71 14.0654 112.305 13.5792 111.456 13.5792C111.068 13.5602 110.691 13.7199 110.424 14.0162C110.158 14.3126 110.028 14.7161 110.069 15.121V18.6804H108.922V12.5961Z" fill="white"/>
<path d="M120.333 11.0742V12.6167H121.592V13.6282H120.333V16.7567C120.333 17.3941 120.584 17.6731 121.154 17.6731C121.301 17.6727 121.447 17.6634 121.592 17.6454V18.6456C121.386 18.6842 121.177 18.7047 120.968 18.707C119.693 18.707 119.185 18.2372 119.185 17.0642V13.6281H118.262V12.6167H119.185V11.0742H120.333Z" fill="white"/>
<path d="M123.164 10.2188H124.301V13.5717H124.392C124.704 12.8538 125.413 12.4179 126.164 12.4817C126.733 12.4493 127.287 12.6844 127.674 13.123C128.061 13.5617 128.241 14.1582 128.165 14.75V18.6782H127.017V15.0462C127.017 14.0744 126.585 13.5822 125.774 13.5822C125.375 13.5479 124.982 13.6998 124.7 13.9972C124.418 14.2946 124.276 14.7072 124.311 15.1247V18.6782H123.164L123.164 10.2188Z" fill="white"/>
<path fill-rule="evenodd" clip-rule="evenodd" d="M132.331 18.7998C133.467 18.9287 134.527 18.1872 134.849 17.0395L133.745 17.0395C133.47 17.5562 132.923 17.8476 132.362 17.7771C131.93 17.7821 131.515 17.5958 131.22 17.264C130.926 16.9321 130.779 16.4855 130.815 16.0341V15.9668H134.918V15.5478C134.918 13.6372 133.943 12.4806 132.326 12.4806C131.549 12.4736 130.808 12.82 130.294 13.4298C129.779 14.0397 129.543 14.8531 129.647 15.6593C129.541 16.4633 129.778 17.2754 130.294 17.8801C130.811 18.4849 131.556 18.8212 132.331 18.7998ZM133.745 15.0817H130.81C130.805 14.6621 130.961 14.2582 131.245 13.9614C131.528 13.6646 131.914 13.5002 132.315 13.5055C132.71 13.496 133.091 13.6618 133.363 13.9619C133.635 14.2621 133.774 14.6688 133.745 15.0817Z" fill="white"/>
</svg>
